<?xml version="1.0" encoding="UTF-8"?>
<svg xmlns="http://www.w3.org/2000/svg" xmlns:xlink="http://www.w3.org/1999/xlink" version="1.1" id="Layer_1" x="0px"
     y="0px" viewBox="0 0 3590.95 3600" style="enable-background:new 0 0 3590.95 3600;" xml:space="preserve"> <g> <path
  d="M3390.94,1422.16c-12.08,24.8-25.28,49.12-36.05,74.47c-66.35,156.18-129.09,313.72-169.05,479.17 c-9.64,39.89-16.08,80.56-24,120.95c30.76,5.08,36.16,13.48,29.46,40.2c-6.36,25.38-22.77,40.36-47.96,45.82 c-13.72,2.97-27.57,5.51-41.47,7.5c-83.26,11.91-145.2,50.93-176.11,133.06c-7.78,20.68-22.49,38.89-34.85,57.68 c-32.78,49.86-76.55,76.99-139.02,74.29c-37.95-1.64-78.55-1.95-110.29,24.68c-12.47,10.47-24.11,26.27-28.15,41.73 c-20.09,76.88-46.58,150.49-96.16,213.82c-43.58,55.66-98.91,85.82-171.82,85.66c-389.16-0.86-778.33-0.24-1167.49-0.91 c-10.85-0.02-26.72-5.73-31.75-13.97c-60.92-99.73-132.94-190.63-208.18-279.94c-63.93-75.89-118.85-159.37-177.65-239.57 c-6.63-9.04-12.53-18.62-15.8-23.49c-70.38,19.99-137.67,42.24-206.47,57.81c-80.36,18.19-160.62,10.43-238.11-18.12 c-91.35-33.66-150.95-97.72-171.22-193.16c-20.03-94.28-19.84-187.16,44.72-267.99c12.16-15.23,26.83-28.46,41.83-44.16 c-70.13-57.53-139.75-114.64-209.36-171.75c1.53-1.96,3.05-3.91,4.58-5.87c73.84,54.81,147.67,109.62,223.83,166.15 c7.96-7.3,15.56-13.74,22.57-20.77c144.04-144.43,287.87-289.08,432.24-433.18c13.18-13.16,17.82-25.01,14.74-44.34 c-8.92-55.96,11.38-106.11,49.43-144.02c41.46-41.3,88.18-78.79,137.61-110.04c26-16.44,63.04-14.72,94.39-23.68 c16.27-4.65,34.03-11.5,45.92-22.81c49.71-47.27,98.07-96.01,145.42-145.66c10.05-10.54,16.93-26.49,19.8-41.03 c7.91-40.17,12.92-80.92,22.87-121.3c-5.53,94.13-11.06,188.26-16.94,288.17c85.69-17.99,166.04-34.85,246.38-51.71 c0.77,1.57,1.53,3.14,2.3,4.7c-5.78,5.43-12.12,10.38-17.25,16.37c-32.87,38.33-68.9,74.53-97.35,115.93 c-38.38,55.85-39.61,118.54-3.17,175.21c31.72,49.32,71.75,93.35,108.93,139.04c5.3,6.51,15.3,9.2,33.05,19.32 c-7.53,3.17-15.42,4.49-20.59,8.96c-89.16,77.07-167.02,163.3-203.86,277.97c-35.74,111.24-8.93,217.26,38.54,318.76 c46.48,99.37,119.08,181.77,181.06,271.16c31.18,44.97,65.82,64.73,118.4,55.85c5.29-0.89,10.86-0.12,21.53-0.12 c-9.3-14.02-16.37-24.49-23.26-35.08c-80.18-123.18-146.32-252.33-183.35-396.06c-40.32-156.53-2.56-292.42,95.8-415.91 c60.16-75.54,129.67-141.14,208.76-196.19c15.92-11.08,36.99-14.76,51.49-20.26c-38.28-29.94-82.14-60.39-121.37-95.94 c-45.63-41.35-74.42-93.57-80.68-156.5c-6.48-65.1,25.49-114.14,67.61-157.53c67.05-69.07,145.96-116.21,243.9-128.61 c36.94-4.67,72.72-17.87,109.48-24.74c18.97-3.54,26.82-12.61,29.23-30.69c7.54-56.62,15.85-113.14,23.99-169.68 c0.49-3.37,2.14-6.57,3.25-9.85c2.4,0.28,4.8,0.56,7.21,0.84c-7,64.22-13.99,128.44-21.67,198.86 c164.07-42.91,324.92-84.97,485.78-127.04c0.86,1.65,1.73,3.3,2.59,4.94c-29.95,24.95-61.41,48.33-89.51,75.23 c-41.99,40.2-85.74,79.71-120.84,125.56c-24.76,32.34-39.44,73.66-53.13,112.89c-16.26,46.61,5.94,84.25,39.8,115.18 c44.55,40.69,99.09,63.81,155.1,83.23c9.3,3.23,22.17,0,32.26-3.52c51.99-18.11,103.62-37.28,159.33-52.94 c-6.97,7.37-13.69,14.99-20.94,22.07c-116.12,113.39-220.69,236.11-301.25,377.69c-49.47,86.95-90.79,177.8-93.7,279.77 c-1.53,53.6,6.18,107.46,9.72,161.21c2.93,0.63,5.86,1.27,8.79,1.9c6.48-5.94,13.39-11.48,19.38-17.87 c139.55-148.74,279.58-297.04,417.53-447.26c13.29-14.47,16.34-40.57,19.27-61.94c12.86-93.77,23.92-187.78,35.79-281.68 c0.16-1.22,2.38-2.19,9.22-8.1c-8.59,103.7-16.75,202.25-24.92,300.8c1.99,1.44,3.98,2.87,5.96,4.31 c135.26-151.97,270.52-303.94,405.77-455.91c1.5,0.73,3,1.45,4.5,2.18c-2.93,5.22-5.27,10.89-8.86,15.61 c-109.39,143.76-207.61,294.46-284.79,458.22c-61.98,131.53-91.42,269.59-79.8,415.07c6.57,82.3,32.58,159.54,69.61,232.89 c19,37.64,41.07,73.72,61.12,110.85c7.02,13,14.34,17.92,30.83,15.43c74.12-11.19,148.58-20.18,224.26-30.15 c8.63-62.17,21.17-121.49,15.52-184.33c-5.94-66.01-1.33-132.97-1.33-203.59c-91.84,0-186.01,0-280.03,0 c-1-47.17,17.96-67.96,58.21-67.96c72.38,0,144.76,0.2,217.14-0.26c9.37-0.06,18.72-3.55,28.08-5.46c-0.47-3.1-0.95-6.19-1.42-9.29 c-89.2,0-178.4,0-273.17,0c10.22-23.17,16.7-42.58,27.28-59.4c3.9-6.19,17.48-8.69,26.68-8.77c78.02-0.67,156.04-0.2,234.06-0.62 c10.02-0.05,20.03-3.23,30.04-4.97c-0.31-2.9-0.62-5.79-0.93-8.69c-90.89,0-181.79,0-277.08,0c7.98-18.1,13.86-31.48,19.77-44.85 c7.69-17.4,20.35-24.53,40-24.34c81.77,0.81,163.57-0.42,245.33,0.8c23.93,0.36,43.59-4.31,61.03-21.31 c20.79-20.27,54.34-27.1,62.81-60.96c0.9-3.61,12.58-4.53,19.26-6.7C3390.94,1407.12,3390.94,1414.64,3390.94,1422.16z M601.02,1717.97c-1.61,4.85-1.64,7.18-2.79,8.08c-82.49,64.52-95.46,152.63-82.32,248.36c1.88,13.69,12.77,29.28,24.1,38.02 c62.4,48.15,123.39,99.16,190.58,139.7c43.2,26.06,96.24,35.78,144.88,52.83c1.34-3.03,2.69-6.05,4.03-9.08 c-61.35-50.43-115.39-107.25-157.16-175.08c-97.34-158.06-83.77-340.58,37.48-466.89c28.74-29.94,63.9-53.72,95.58-79.89 c-84.79-53.8-84.79-53.8-142.33-138.59c-141.58,140.65-283.61,281.76-426.67,423.88C388.07,1719.44,492.81,1710.22,601.02,1717.97z M2413.58,2185.53c-47-29.5-97.28-60.29-146.62-92.53c-14.21-9.28-25.88-10.67-41-3.08c-120.35,60.41-240.82,120.56-361.62,180.06 c-21.43,10.55-26.16,26.12-22.51,49c159.52,0,318.01,0.36,476.49-0.37c25.68-0.12,42.31-15.33,52.21-39.93 C2382.64,2248.63,2397.61,2219.73,2413.58,2185.53z M736.92,2242.39c-21.98-24.75-37.17-46.13-56.46-62.76 c-50.38-43.44-105.02-82.21-153.16-127.89c-32.58-30.91-61.55-26.73-95.66-9.46c-47.89,24.24-75.06,72.53-70.54,126.83 c3.5,42.11,31.41,68.97,88.34,84.9c4.48,1.25,9.06,2.24,13.65,3.01C552.21,2271.92,640,2261.32,736.92,2242.39z M1807.69,1963.43 c-112.11,0.65-189.57,64.15-207.1,167.63c-10.87,64.15,4.39,125.7,20.9,186.33c92.46,6.99,97.72,3.74,130.28-80.02 c3.71-9.55,7.84-19.16,9.76-29.14C1777.01,2127.6,1792.02,2046.87,1807.69,1963.43z M2769.58,2287.47 c-0.39-1.71-0.78-3.42-1.17-5.13c-37.2,0-74.48,1.44-111.6-0.37c-45.53-2.21-84.66,13.22-120.63,38.73 c-50.54,35.84-100.47,72.54-150.85,108.61c-39.81,28.49-84.16,45.78-133.2,46.88c-156.07,3.5-311.98-0.3-466.08-27.51 c-232.35-41.03-464.35-84.1-696.36-127c-49.3-9.12-98.05-21.24-147.05-31.97c6.55,7.32,14.29,10.19,22.14,12.77 c158.52,52.24,320.26,90.78,484.56,120.58c260.62,47.28,521.31,90.24,787.68,82.34c62.19-1.85,117.73-19.02,167.96-55.11 c52.59-37.79,103.87-77.72,158.77-111.81c26-16.15,58.57-23.06,89.09-30.23C2691.25,2299.21,2730.62,2294.21,2769.58,2287.47z M1960.67,1225.79c158.28-46.3,309.29-90.47,460.3-134.64c-0.56-3.46-1.12-6.93-1.68-10.39 c-144.22-26.79-288.92-46.99-439.27-30.68C1973.84,1106.22,1967.83,1160.81,1960.67,1225.79z M1123.78,1288.01 c-47.21-14.06-127.38-8.79-174.4,10.22c-63.98,25.87-90.66,68.8-85.75,137.98c2.51,35.38,7.03,42.96,41.14,41.23 c60.66-3.07,121.15-10.05,181.59-16.45c5.18-0.55,12.85-8.48,13.72-13.89C1108.6,1394.68,1115.91,1342.07,1123.78,1288.01z M1490.31,2319.98c1.3-3.18,2.6-6.37,3.9-9.55c-98.99-93.51-200.3-184.19-320.88-263.23c0,77.99,0,148.8,0,224.04 C1277.82,2287.3,1384.06,2303.64,1490.31,2319.98z M2307.11,2058.13c39.72,43.03,75.5,82.2,111.97,120.71 c3.75,3.96,11.7,5.91,17.55,5.62c42.13-2.05,84.28-4.27,126.26-8.12c7.3-0.67,19.09-8.52,19.96-14.37 c7.97-53.55,13.99-107.39,20.93-164.05C2501.03,1993.41,2408.56,2024.57,2307.11,2058.13z M1879.7,1955.85 c-10.23,93.3-20.12,183.53-30.01,273.76c2.45,0.95,4.9,1.9,7.34,2.84c77.69-74.76,155.39-149.53,235.7-226.81 C2021.48,1976.95,1955.01,1956.07,1879.7,1955.85z M3163.4,1946.96c59.82-163.74,120.44-329.67,181.9-497.91 c-80.42,56.04-140.3,126.13-168.03,219.72c-25.99,87.75-20.23,178.2-16.4,268.16C3161.09,1942.19,3163.5,1947.35,3163.4,1946.96z M1062.88,1991.86c-10.59,85.51-20.43,164.95-30.57,246.84c42.26,8.8,82.45,17.17,130.27,27.13c0-67.76-0.01-129.54,0.02-191.32 c0-5.62,1.44-11.55,0.12-16.8c-1.88-7.47-3.7-18.13-9.03-21.03C1125.28,2021.25,1095.78,2007.81,1062.88,1991.86z M1946.42,1050.53 c-39.37,11.74-74.03,19.42-106.61,32.34c-72.66,28.83-93.1,82.15-59.69,153.19c3.71,7.88,18.21,16.25,26.71,15.31 c30.53-3.35,60.55-11.17,90.94-16.15c16.45-2.7,23.08-11.84,25.28-27.42C1930.07,1158.04,1937.77,1108.37,1946.42,1050.53z M983.32,2222.58c11.43-77.02,22.91-154.39,35.05-236.28c-24.64,1.78-42.31,2.06-59.67,4.49c-53.93,7.55-81.67,41.2-76.21,94.69 c2.45,23.94,10.91,47.22,14.35,71.13C903.73,2204.43,931.36,2225.61,983.32,2222.58z M2641.91,2169.22 c79.15-7.98,154.87-15.62,238.54-24.06c-74.02-54.94-143.32-100.73-225.48-133.07C2650.56,2065.18,2646.48,2114.25,2641.91,2169.22 z M1425.7,1387.61c0.17-2.97,0.34-5.95,0.51-8.92c-75.43-25.77-150.86-51.53-231.22-78.98c0,50.25,0,94.11,0,142.3 C1271.82,1423.89,1348.76,1405.75,1425.7,1387.61z M1440.31,2565.72c0.01-4.26,0.02-8.52,0.02-12.78 c-139.74-30.71-279.47-61.42-419.21-92.13c-0.75,2.41-1.5,4.81-2.25,7.22c71.5,23.75,142.22,50.34,214.76,70.34 c57.25,15.78,116.64,24.04,175.35,34.14C1418.74,2574.18,1429.83,2568.18,1440.31,2565.72z M1045.17,999.77 c39.09-7.96,75.61-15.13,111.96-23.1c5.53-1.21,14.06-5.54,14.74-9.52c6.08-35.69,10.71-71.62,15.98-108.97 C1138.87,906.79,1093.3,952.01,1045.17,999.77z M1148.17,1293.46c-6.53,53.52-12.8,104.86-19.52,159.99 c19.15-3.73,34.8-6.77,52.55-10.22c0-41.96-1.52-81.18,0.55-120.21C1183.06,1298.2,1172.11,1291.97,1148.17,1293.46z"></path> </g> </svg>
