<?xml version="1.0" encoding="iso-8859-1"?>
<!-- Generator: Adobe Illustrator 25.2.1, SVG Export Plug-In . SVG Version: 6.00 Build 0)  -->
<svg version="1.1" id="&#x421;&#x43B;&#x43E;&#x439;_1"
	 xmlns="http://www.w3.org/2000/svg" xmlns:xlink="http://www.w3.org/1999/xlink" x="0px" y="0px" viewBox="0 0 64 64"
	 style="enable-background:new 0 0 64 64;" xml:space="preserve">
<g>
	<polygon points="58,49 54,49 54,11.234 51.994,12.235 47.988,10.236 43.988,12.236 39.989,10.236 35.991,12.236 31.991,10.236 
		27.992,12.236 23.993,10.236 19.995,12.236 18,11.238 18,36 14,36 14,4.762 19.995,7.764 23.993,5.764 27.992,7.764 31.991,5.764 
		35.991,7.764 39.989,5.764 43.988,7.764 47.986,5.764 51.994,7.765 58,4.766 	"/>
</g>
<g>
	<rect x="22" y="16.441" width="13" height="4"/>
</g>
<g>
	<rect x="40" y="16.441" width="10" height="4"/>
</g>
<g>
	<rect x="35" y="23.441" transform="matrix(-1 -1.224647e-16 1.224647e-16 -1 85 50.8817)" width="15" height="4"/>
</g>
<g>
	<rect x="22" y="23.441" transform="matrix(-1 -1.224647e-16 1.224647e-16 -1 52 50.8817)" width="8" height="4"/>
</g>
<g>
	<rect x="43" y="30.441" transform="matrix(-1 -1.224647e-16 1.224647e-16 -1 93 64.8817)" width="7" height="4"/>
</g>
<g>
	<rect x="22" y="30.441" transform="matrix(-1 -1.224647e-16 1.224647e-16 -1 60 64.8817)" width="16" height="4"/>
</g>
<g>
	<path d="M54,40.068V48.5c0,2.981-1.603,5.5-3.5,5.5S47,51.481,47,48.5s1.603-5.5,3.5-5.5c0.17,0,0.336,0.027,0.5,0.066v-4.035
		C50.834,39.018,50.669,39,50.5,39h-37C9.294,39,6,43.173,6,48.5S9.294,58,13.5,58h37c4.206,0,7.5-4.173,7.5-9.5
		C58,44.785,56.396,41.637,54,40.068z"/>
</g>
</svg>