<?xml version="1.0" encoding="iso-8859-1"?>
<!-- Generator: Adobe Illustrator 24.1.2, SVG Export Plug-In . SVG Version: 6.00 Build 0)  -->
<svg version="1.1" id="Layer_1" xmlns="http://www.w3.org/2000/svg" xmlns:xlink="http://www.w3.org/1999/xlink" x="0px" y="0px"
	 viewBox="0 0 64 64" style="enable-background:new 0 0 64 64;" xml:space="preserve">
<path d="M47.281,41.884l-8.111,3.234l-3.005-2.183l0.316-9.059L31,27.548l1.161-3.573l8.366-2.418L45.408,14h3.744L51,16.859V7H13
	v52l17.137-9.019c1.166-0.614,2.56-0.614,3.726,0L51,59V43.367L47.281,41.884z"/>
<path d="M56.281,42c-0.506,0.368-0.593,0.431-1.099,0.798L47.281,39l-7.901,3.798c-0.506-0.368-0.593-0.431-1.099-0.798l1-9l-6-6
	c0.193-0.595,0.226-0.697,0.42-1.292L42.281,24l4.321-8c0.626,0,0.733,0,1.358,0l4.321,8l8.58,1.708
	c0.193,0.595,0.226,0.697,0.42,1.292l-6,6L56.281,42z"/>
</svg>