<svg xmlns="http://www.w3.org/2000/svg" x="0px" y="0px" width="100" height="100" viewBox="0 0 64 64">
<path d="M 32 6 C 17.64 6 6 17.64 6 32 C 6 37.371799 7.6291429 42.362254 10.419922 46.505859 L 8 58 L 20.568359 55.353516 C 24.019088 57.045877 27.897143 58 32 58 C 46.36 58 58 46.36 58 32 C 58 17.64 46.36 6 32 6 z M 20 29 C 21.66 29 23 30.34 23 32 C 23 33.66 21.66 35 20 35 C 18.34 35 17 33.66 17 32 C 17 30.34 18.34 29 20 29 z M 32 29 C 33.66 29 35 30.34 35 32 C 35 33.66 33.66 35 32 35 C 30.34 35 29 33.66 29 32 C 29 30.34 30.34 29 32 29 z M 44 29 C 45.66 29 47 30.34 47 32 C 47 33.66 45.66 35 44 35 C 42.34 35 41 33.66 41 32 C 41 30.34 42.34 29 44 29 z"></path>
</svg>