<?xml version="1.0" encoding="iso-8859-1"?>
<!-- Generator: Adobe Illustrator 25.2.1, SVG Export Plug-In . SVG Version: 6.00 Build 0)  -->
<svg version="1.1" id="Layer_1" xmlns="http://www.w3.org/2000/svg" xmlns:xlink="http://www.w3.org/1999/xlink" x="0px" y="0px"
	 viewBox="0 0 64 64" style="enable-background:new 0 0 64 64;" xml:space="preserve">
<path style="fill:none;stroke:#000000;stroke-width:4;stroke-miterlimit:10;" d="M5,15v34c0,2.209,1.791,4,4,4h46
	c2.209,0,4-1.791,4-4V15c0-2.209-1.791-4-4-4H9C6.791,11,5,12.791,5,15z"/>
<ellipse cx="14" cy="22" rx="3" ry="4"/>
<ellipse cx="14" cy="42" rx="3" ry="4"/>
<ellipse cx="32" cy="22" rx="3" ry="4"/>
<path d="M56,11H37v2c1.657,0,3,1.343,3,3v32c0,1.657-1.343,3-3,3v2h19c1.657,0,3-1.343,3-3V14C59,12.343,57.657,11,56,11z M46.5,26
	c-1.381,0-2.5-1.791-2.5-4c0-2.209,1.119-4,2.5-4s2.5,1.791,2.5,4C49,24.209,47.881,26,46.5,26z M54.5,45c-1.381,0-2.5-1.791-2.5-4
	c0-2.209,1.119-4,2.5-4s2.5,1.791,2.5,4C57,43.209,55.881,45,54.5,45z M50.5,35c-1.381,0-2.5-1.791-2.5-4c0-2.209,1.119-4,2.5-4
	s2.5,1.791,2.5,4C53,33.209,51.881,35,50.5,35z"/>
<ellipse cx="23" cy="32" rx="3" ry="4"/>
<ellipse cx="32" cy="42" rx="3" ry="4"/>
</svg>