<svg xmlns="http://www.w3.org/2000/svg" x="0px" y="0px" width="100" height="100" viewBox="0 0 64 64">
<path d="M 32.248047 6.0058594 C 27.668047 5.9558594 23.069609 6.245 18.599609 7.125 C 16.379609 7.575 14.168672 8.1649219 12.138672 9.0449219 C 11.128672 9.4849219 10.159375 10.004531 9.359375 10.644531 C 8.559375 11.274531 7.9880469 12.055859 7.9980469 12.755859 C 7.9880469 13.455859 8.559375 14.235234 9.359375 14.865234 C 10.159375 15.505234 11.128672 16.024844 12.138672 16.464844 C 14.168672 17.344844 16.379609 17.934766 18.599609 18.384766 C 23.069609 19.264766 27.668047 19.555859 32.248047 19.505859 C 36.828047 19.435859 41.398359 18.994922 45.818359 18.044922 C 48.028359 17.564922 50.209453 16.954219 52.189453 16.074219 C 53.159453 15.634219 54.109844 15.115859 54.839844 14.505859 C 55.599844 13.905859 56.028047 13.205859 55.998047 12.755859 C 56.028047 12.305859 55.599844 11.605859 54.839844 11.005859 C 54.109844 10.395859 53.159453 9.8755469 52.189453 9.4355469 C 50.209453 8.5555469 48.028359 7.9448438 45.818359 7.4648438 C 41.398359 6.5148437 36.828047 6.0758594 32.248047 6.0058594 z M 8.1289062 16.484375 L 11.458984 27.585938 C 12.188984 28.055938 12.94875 28.475234 13.71875 28.865234 C 15.56875 29.795234 17.529062 30.515703 19.539062 31.095703 C 21.559062 31.615703 23.618984 32.035859 25.708984 32.255859 C 26.748984 32.405859 27.799609 32.425391 28.849609 32.525391 C 29.899609 32.565391 30.948047 32.565937 31.998047 32.585938 C 33.048047 32.545938 34.098438 32.525078 35.148438 32.455078 C 36.188437 32.345078 37.239297 32.304766 38.279297 32.134766 C 40.349297 31.864766 42.388672 31.415469 44.388672 30.855469 C 46.368672 30.245469 48.299375 29.495156 50.109375 28.535156 C 51.009375 28.055156 51.908281 27.515547 52.738281 26.935547 L 55.519531 17.644531 C 54.809531 18.074531 54.089141 18.424141 53.369141 18.744141 C 51.089141 19.734141 48.748203 20.355937 46.408203 20.835938 C 41.708203 21.755938 36.968047 22.055859 32.248047 22.005859 C 27.528047 21.935859 22.808203 21.494375 18.158203 20.484375 C 15.838203 19.984375 13.528828 19.345469 11.298828 18.355469 C 10.208828 17.865469 9.1289063 17.294375 8.1289062 16.484375 z M 9.1074219 28.445312 L 12.277344 40.095703 C 12.898344 40.535703 13.549219 40.955938 14.199219 41.335938 C 15.949219 42.345937 17.818047 43.174922 19.748047 43.794922 C 23.638047 45.014922 27.739844 45.535625 31.839844 45.515625 C 35.939844 45.505625 40.019141 44.894297 43.869141 43.654297 C 45.769141 43.004297 47.618125 42.195781 49.328125 41.175781 C 49.375125 41.148781 49.419797 41.115891 49.466797 41.087891 L 50.140625 34 L 53.380859 34 L 54.707031 29.134766 C 53.657031 29.884766 52.557734 30.505938 51.427734 31.085938 C 49.407734 32.105937 47.298438 32.884141 45.148438 33.494141 C 42.988437 34.064141 40.797656 34.494375 38.597656 34.734375 C 37.507656 34.894375 36.398828 34.925625 35.298828 35.015625 C 34.198828 35.065625 33.098047 35.065937 31.998047 35.085938 C 30.898047 35.045938 29.797266 35.015078 28.697266 34.955078 C 27.607266 34.835078 26.498203 34.785234 25.408203 34.615234 C 23.218203 34.335234 21.047969 33.855859 18.917969 33.255859 C 16.797969 32.605859 14.718281 31.795859 12.738281 30.755859 C 11.478281 30.075859 10.247422 29.345312 9.1074219 28.445312 z M 52 36 L 51.070312 49 L 44 49 L 54 64 L 64 49 L 56.929688 49 L 56 36 L 52 36 z M 9.9980469 41.054688 L 12.998047 52.054688 C 12.998047 52.054688 16.998047 58.054688 31.998047 58.054688 C 37.899047 58.054688 42.091672 57.125047 45.013672 55.998047 L 40.423828 47.308594 C 37.579828 47.836594 34.695125 48.069625 31.828125 48.015625 C 27.508125 47.955625 23.167109 47.325781 19.037109 45.925781 C 16.977109 45.215781 14.987422 44.294062 13.107422 43.164062 C 12.077422 42.524062 11.078437 41.834688 10.148438 41.054688 L 9.9980469 41.054688 z"></path>
</svg>