<svg xmlns="http://www.w3.org/2000/svg" x="0px" y="0px" width="100" height="100" viewBox="0 0 64 64">
<path d="M 22.787109 4 L 4 22.787109 L 4 25.212891 L 22.787109 44 L 25.212891 44 L 44 25.212891 L 44 22.787109 L 25.212891 4 L 22.787109 4 z M 24 12 C 25.105 12 26 12.895 26 14 C 26 15.105 25.105 16 24 16 C 22.895 16 22 15.105 22 14 C 22 12.895 22.895 12 24 12 z M 14 22 C 15.105 22 16 22.895 16 24 C 16 25.105 15.105 26 14 26 C 12.895 26 12 25.105 12 24 C 12 22.895 12.895 22 14 22 z M 24 22 C 25.105 22 26 22.895 26 24 C 26 25.105 25.105 26 24 26 C 22.895 26 22 25.105 22 24 C 22 22.895 22.895 22 24 22 z M 34 22 C 35.105 22 36 22.895 36 24 C 36 25.105 35.105 26 34 26 C 32.895 26 32 25.105 32 24 C 32 22.895 32.895 22 34 22 z M 43.576172 29 L 29 45.322266 L 29 57.585938 L 30.414062 59 L 57.585938 59 L 59 57.585938 L 59 30.414062 L 57.585938 29 L 43.576172 29 z M 24 32 C 25.105 32 26 32.895 26 34 C 26 35.105 25.105 36 24 36 C 22.895 36 22 35.105 22 34 C 22 32.895 22.895 32 24 32 z M 44 42 C 45.105 42 46 42.895 46 44 C 46 45.105 45.105 46 44 46 C 42.895 46 42 45.105 42 44 C 42 42.895 42.895 42 44 42 z"></path>
</svg>