<svg xmlns="http://www.w3.org/2000/svg" x="0px" y="0px" width="100" height="100" viewBox="0 0 50 50">
  <path d="M 49 48 L 48.5 48 C 39.863281 48 37.800781 39.097656 35.804688 30.484375 C 34.007813 22.722656 32.148438 14.699219 25 14.699219 C 17.84375 14.699219 15.96875 22.742188 14.152344 30.515625 C 12.1875 38.9375 10.140625 47.613281 2 47.96875 L 2 1 C 2 0.449219 1.550781 0 1 0 C 0.449219 0 0 0.449219 0 1 L 0 50 L 49 50 C 49.554688 50 50 49.554688 50 49 C 50 48.445313 49.554688 48 49 48 Z"></path>
</svg>
