<?xml version="1.0" encoding="iso-8859-1"?>
<!-- Generator: Adobe Illustrator 25.2.3, SVG Export Plug-In . SVG Version: 6.00 Build 0)  -->
<svg version="1.1" xmlns="http://www.w3.org/2000/svg" xmlns:xlink="http://www.w3.org/1999/xlink" x="0px" y="0px"
	 viewBox="0 0 64 64" style="enable-background:new 0 0 64 64;" xml:space="preserve">
<g id="Layer_1">
</g>
<g id="t-shirt">
</g>
<g id="diamond">
	<path d="M48.848,9.189C37.926,9.072,15.087,9.015,15.087,9.015L0.301,26.059l31.694,33.478l31.889-33.464
		C63.884,26.072,53.341,14.155,48.848,9.189z M43.08,21.15l-7.195-8.232c3.388-0.028,6.775-0.057,10.171-0.097L43.08,21.15z
		 M39.26,23.75c-2.26,0.03-4.51,0.06-6.76,0.11l-8.79,0.17l8.23-10.29L39.26,23.75z M50.023,16.557
		c1.803,2.354,3.607,4.687,5.403,6.996L53.12,23.58l-5.63,0.07L50.023,16.557z M16.915,13.011c3.793-0.002,7.584-0.02,11.375-0.04
		l-7.78,9.719l-2.8-7.29l-2.34,3.22l2.13,5.54l-6.29,0.17L10,26l1.11,1.66l7.64,0.21l13.75,0.27c4.58,0.1,9.17,0.13,13.75,0.19
		l6.87,0.09l1.786,0.021L39.084,45.859L45.51,30.91l-5.37-0.18l-8.23,19.15l-9.23-19.75L19.06,30l6.792,17.23L5.698,25.941
		L16.915,13.011z"/>
</g>
<g id="glasses">
</g>
<g id="umbrella">
</g>
<g id="chef_hat">
</g>
<g id="hanger">
</g>
<g id="warranty_card">
</g>
<g id="shirt">
</g>
<g id="wedding_dress">
</g>
<g id="sneakers">
</g>
<g id="apple_watch_apps">
</g>
<g id="apple_watch">
</g>
<g id="sun_glasses">
</g>
<g id="tie">
</g>
<g id="trousers">
</g>
<g id="motorbike_helmet">
</g>
<g id="jacket">
</g>
<g id="santas_hat">
</g>
<g id="bra">
</g>
<g id="witch_hat">
</g>
<g id="womens_shoe">
</g>
<g id="women_shoe_side_view">
</g>
<g id="socks">
</g>
<g id="bow_tie">
</g>
<g id="panties">
</g>
<g id="coat">
</g>
<g id="necklace">
</g>
<g id="doctors_laboratoey_coat">
</g>
<g id="school_backpack">
</g>
<g id="boots">
</g>
<g id="dress_front_view">
</g>
<g id="mens_shoe">
</g>
<g id="romper">
</g>
<g id="scarf">
</g>
<g id="wizard">
</g>
<g id="air_pilot_hat">
</g>
<g id="slip_dress">
</g>
<g id="shorts">
</g>
<g id="jeans">
</g>
<g id="little_black_dress">
</g>
<g id="invite">
</g>
</svg>