<?xml version="1.0" encoding="utf-8"?><!-- Generator: Adobe Illustrator 26.0.3, SVG Export Plug-In . SVG Version: 6.00 Build 0)  --><svg xmlns="http://www.w3.org/2000/svg" xmlns:xlink="http://www.w3.org/1999/xlink" viewBox="0 0 64 64" width="50px" height="50px"><g id="Слой_4">	<path d="M7.2,54.5c-0.6,1.5,0.9,3,2.4,2.4L14,55l-5-5L7.2,54.5z"/></g><g id="Слой_3">	<path d="M13,42c1.5,1.5,1,4,1,4l1.3,0.4c1.1,0.4,1.9,1.2,2.3,2.3L18,50c0,0,3,0,4,1l24-24l-8-10L13,42z"/></g><g id="Слой_2">	<path d="M54.7,9.3c-3.5-3.5-7-2-7-2L43,12l9,9l4.7-4.7C56.7,16.3,58.2,12.8,54.7,9.3z"/></g></svg>
