<?xml version="1.0" encoding="iso-8859-1"?>
<!-- Generator: Adobe Illustrator 24.1.2, SVG Export Plug-In . SVG Version: 6.00 Build 0)  -->
<svg version="1.1" id="Layer_1" xmlns="http://www.w3.org/2000/svg" xmlns:xlink="http://www.w3.org/1999/xlink" x="0px" y="0px"
	 viewBox="0 0 64 64" style="enable-background:new 0 0 64 64;" xml:space="preserve">
<path d="M32,3l30,53H2L32,3z M32.021,50c1.176,0,2.436-1.365,2.436-2.978c0-1.697-1.26-3.022-2.436-3.022
	c-1.471,0-2.479,1.325-2.479,3.022C29.543,48.635,30.551,50,32.021,50z M33,41c0,0,0.875-6.367,1-8.504
	c0.182-3.114,0-12.476,0-12.476h-4c0,0-0.182,9.362,0,12.476C30.125,34.633,31,41,31,41H33z"/>
</svg>