<?xml version="1.0" encoding="iso-8859-1"?>
<!-- Generator: Adobe Illustrator 25.2.1, SVG Export Plug-In . SVG Version: 6.00 Build 0)  -->
<svg version="1.1" id="Layer_1" xmlns="http://www.w3.org/2000/svg" xmlns:xlink="http://www.w3.org/1999/xlink" x="0px" y="0px"
	 viewBox="0 0 64 64" style="enable-background:new 0 0 64 64;" xml:space="preserve">
<path d="M32,6C17.641,6,6,17.641,6,32c0,14.359,11.641,26,26,26s26-11.641,26-26C58,17.641,46.359,6,32,6z M32,54
	c-12.15,0-22-9.85-22-22s9.85-22,22-22s22,9.85,22,22S44.15,54,32,54z"/>
<path d="M62,32c0,0-2-8-11.226-18c0,0,5.226,12,5.226,18s-5.226,18-5.226,18C60,40,62,32,62,32z"/>
<path d="M2,32c0,0,2,8,11.226,18C13.226,50,8,38,8,32s5.226-18,5.226-18C4,24,2,32,2,32z"/>
<path d="M35,31l-1-2l3.104-5.588C35.609,22.521,33.867,22,32,22c-5.523,0-10,4.477-10,10c0,5.523,4.477,10,10,10s10-4.477,10-10
	c0-0.338-0.018-0.671-0.05-1H35z"/>
</svg>