<?xml version="1.0" encoding="iso-8859-1"?>
<!-- Generator: Adobe Illustrator 25.2.1, SVG Export Plug-In . SVG Version: 6.00 Build 0)  -->
<svg version="1.1" id="Layer_1" xmlns="http://www.w3.org/2000/svg" xmlns:xlink="http://www.w3.org/1999/xlink" x="0px" y="0px"
	 viewBox="0 0 64 64" style="enable-background:new 0 0 64 64;" xml:space="preserve">
<path d="M45,13c0,0-2,8-7,8c-11,0-7-18-7-18S21,9,18,25c-4-2-5-8-5-8s-6,7-6,18c0,21,20,23,20,23s-5-6-5-13c0-11,4.696-16,4.696-16
	s1,11,7.304,11c4,0,6-3,6-3s4,4,4,11c0,6.348-5,10-5,10c10.478-2.106,18-11.79,18-22.862C57,22,45,13,45,13z"/>
</svg>