<svg xmlns="http://www.w3.org/2000/svg" x="0px" y="0px" width="100" height="100" viewBox="0 0 64 64">
<path d="M 38 5 C 22 5 16 9 16 20 L 16 22.5 L 16 25 L 16 26.023438 C 15.592 26.666438 15 27.879 15 29.5 C 15 31.981 16.503656 33.697 17.222656 34.375 C 18.018656 36.442 19.406266 38.448172 20.947266 40.201172 L 20.505859 46.613281 L 3 52 L 3.4433594 54.658203 C 3.7643594 56.586203 5.4336719 58 7.3886719 58 L 52.611328 58 C 54.566328 58 56.236594 56.586203 56.558594 54.658203 L 57 52 L 39.494141 46.613281 L 39.052734 40.201172 C 40.593734 38.447172 41.981344 36.442 42.777344 34.375 C 43.496344 33.697 45 31.981 45 29.5 C 45 27.879 44.408 26.666438 44 26.023438 L 44 26 L 44 22.5 L 44 20 C 44 16.5 43 11 40 11 L 38 5 z M 21 16 C 21 16 25.5 17 30 17 C 34.5 17 38 16 38 16 C 40.423124 18.076963 40.918085 22.504359 41 25.060547 L 41 26.5 L 41.005859 26.695312 C 41.003321 26.747877 41 27 41 27 L 41.013672 26.996094 L 41.015625 27.050781 L 41.349609 27.464844 C 41.376609 27.497844 42 28.277 42 29.5 C 42 31.179 40.59875 32.300688 40.59375 32.304688 L 40.232422 32.578125 L 40.082031 33.007812 C 38.325031 38.054812 32.512516 42.321 31.228516 43 L 28.769531 43 C 27.485531 42.321 21.673016 38.054812 19.916016 33.007812 L 19.767578 32.578125 L 19.40625 32.304688 C 19.39325 32.293687 18 31.191 18 29.5 C 18 28.277 18.623719 27.497469 18.636719 27.480469 L 19 27.058594 L 19 27 L 19 23.650391 C 19.107981 20.980824 19.532442 17.467558 21 16 z M 47 22 L 47 26 L 62 26 L 62 22 L 47 22 z M 47.980469 30 C 47.900469 31.58 47.410547 32.93 46.810547 34 L 62 34 L 62 30 L 47.980469 30 z M 44.820312 38 L 42.199219 42 L 62 42 L 62 38 L 44.820312 38 z M 23.761719 43.007812 C 25.856719 44.836813 27.778 46 28.5 46 L 31.5 46 C 32.222 46 34.143281 44.836813 36.238281 43.007812 L 36.544922 47.447266 C 35.401664 48.924609 33.230555 51 30 51 C 26.769445 51 24.598336 48.924609 23.455078 47.447266 L 23.761719 43.007812 z"></path>
</svg>