<svg xmlns="http://www.w3.org/2000/svg" x="0px" y="0px" width="100" height="100" viewBox="0 0 64 64">
<path d="M 40 5 C 24 5 18 9 18 20 L 18 26 C 18 26 17.1875 27.522969 17.1875 29.542969 C 17.1875 32.266969 19.382812 33.931641 19.382812 33.931641 C 20.287046 36.528933 22.048117 38.923416 23.900391 40.888672 L 23.527344 46.298828 L 5 52 L 5.4433594 54.658203 C 5.7643594 56.586203 7.4336719 58 9.3886719 58 L 32 58 L 54.611328 58 C 56.566328 58 58.236594 56.586203 58.558594 54.658203 L 59 52 L 40.472656 46.298828 L 40.099609 40.890625 C 41.952355 38.925138 43.713151 36.529484 44.617188 33.931641 C 44.617188 33.931641 46.8125 32.267969 46.8125 29.542969 C 46.8125 27.522969 46 26 46 26 L 46 20 C 46 16.617286 45.060067 11.381325 42.289062 11.033203 C 42.14683 10.860139 41.994556 10.697699 41.84375 10.533203 L 40 5 z M 53.560547 9 C 49.940547 9 46.910156 9.23 44.410156 9.75 C 44.790449 10.005056 45.132105 10.326855 45.445312 10.691406 C 45.571646 10.837256 45.69088 10.99275 45.806641 11.154297 C 45.846433 11.210034 45.887203 11.264834 45.925781 11.322266 C 45.981742 11.405373 46.032541 11.495453 46.085938 11.582031 C 46.249627 11.847704 46.402386 12.127485 46.542969 12.421875 C 46.57703 12.493393 46.61378 12.561755 46.646484 12.634766 C 47.533633 14.608726 47.940861 17.116304 47.990234 19.449219 C 51.220234 19.289219 53.560547 18.619141 53.560547 18.619141 C 55.051259 19.895502 55.703323 22.20842 55.988281 24.248047 C 55.988338 24.265555 55.990234 24.283282 55.990234 24.300781 L 55.990234 28.359375 L 56.359375 28.779297 C 56.359375 28.779297 56.869141 29.429922 56.869141 30.419922 C 56.869141 31.789922 55.710938 32.720469 55.710938 32.730469 L 55.349609 33 L 55.199219 33.429688 C 53.689219 37.769687 48.769844 41.399062 47.589844 42.039062 L 45.539062 42.039062 C 45.119062 41.809063 44.240937 41.219609 43.210938 40.349609 C 42.880938 40.769609 42.530391 41.189375 42.150391 41.609375 L 42.279297 43.449219 C 43.619297 44.449219 44.74 45.039063 45.25 45.039062 L 47.880859 45.039062 C 48.460292 45.039062 49.845522 44.250596 51.427734 42.982422 L 51.740234 47.179688 L 54.810547 47.960938 L 54.240234 40.365234 C 55.739747 38.735794 57.118841 36.807758 57.900391 34.789062 C 58.560391 34.159062 59.869141 32.619922 59.869141 30.419922 C 59.869141 28.999922 59.360234 27.920078 58.990234 27.330078 L 58.990234 24.300781 C 58.990234 23.330477 58.917388 22.404129 58.789062 21.517578 C 58.688065 18.587036 57.834948 14.594627 55.587891 14.283203 C 55.460928 14.143487 55.322827 14.017259 55.189453 13.884766 L 53.560547 9 z M 19.119141 9.2109375 C 9.3469433 10.056048 5.4002007 13.621195 5.1816406 21.431641 C 5.0451632 22.343441 4.9707031 23.299702 4.9707031 24.300781 L 4.9707031 27.330078 C 4.6007031 27.920078 4.0996094 28.999922 4.0996094 30.419922 C 4.0996094 32.619922 5.4003125 34.159062 6.0703125 34.789062 C 6.8570346 36.821117 8.2480089 38.762221 9.7578125 40.398438 L 9.1894531 47.960938 L 12.259766 47.179688 L 12.568359 43.011719 C 14.136741 44.264652 15.510338 45.039062 16.089844 45.039062 L 18.710938 45.039062 C 19.230937 45.039062 20.370703 44.439922 21.720703 43.419922 L 21.849609 41.609375 C 21.659609 41.399375 21.470781 41.180703 21.300781 40.970703 C 21.150781 40.790703 20.999375 40.619453 20.859375 40.439453 C 20.829375 40.399453 20.799531 40.360078 20.769531 40.330078 C 19.729531 41.210078 18.849688 41.809062 18.429688 42.039062 L 16.369141 42.039062 C 15.189141 41.399062 10.269766 37.769688 8.7597656 33.429688 L 8.5996094 33 L 8.2597656 32.730469 C 8.2497656 32.720469 7.0996094 31.789922 7.0996094 30.419922 C 7.0996094 29.429922 7.599375 28.789297 7.609375 28.779297 L 7.9707031 28.359375 L 7.9707031 24.300781 C 7.9707031 23.482202 8.0405471 22.655429 8.171875 21.841797 C 8.4361155 20.51696 8.8432613 19.302044 9.5292969 18.619141 C 9.5292969 18.619141 12.589766 19.299219 16.009766 19.449219 C 16.049544 17.211706 16.339856 15.268542 16.859375 13.580078 C 17.016327 13.067677 17.200834 12.587256 17.398438 12.123047 C 17.45471 11.991431 17.516621 11.866294 17.576172 11.738281 C 17.70645 11.45601 17.84576 11.183941 17.990234 10.917969 C 18.328715 10.307437 18.699496 9.734412 19.119141 9.2109375 z"></path>
</svg>