<svg xmlns="http://www.w3.org/2000/svg" x="0px" y="0px" width="100" height="100" viewBox="0 0 50 50">
  <path d="M 26.8125 5 C 22.550781 5 19.164063 6.558594 17.3125 9.40625 C 16.972656 9.925781 16.714844 10.484375 16.5 11.0625 L 16.28125 10.5625 C 16.113281 10.214844 15.761719 9.996094 15.375 10 C 11.890625 10 9.292969 11.402344 7.9375 13.5 C 6.699219 15.410156 6.636719 17.824219 7.40625 20.0625 C 7.074219 20.519531 6.84375 21.074219 6.9375 21.875 C 7.042969 22.777344 7.28125 23.445313 7.65625 23.9375 C 7.816406 24.148438 8.046875 24.148438 8.25 24.28125 C 8.382813 25.023438 8.574219 25.761719 8.875 26.375 C 9.054688 26.742188 9.265625 27.058594 9.46875 27.34375 C 9.535156 27.4375 9.648438 27.507813 9.71875 27.59375 C 9.722656 28.382813 9.71875 29.058594 9.65625 29.875 C 9.472656 30.339844 9.042969 30.765625 8.21875 31.1875 C 7.375 31.621094 6.226563 32.015625 5.0625 32.53125 C 3.898438 33.046875 2.695313 33.667969 1.71875 34.6875 C 0.742188 35.707031 0.0429688 37.121094 -0.0625 38.9375 C -0.078125 39.214844 0.0195313 39.484375 0.207031 39.683594 C 0.398438 39.886719 0.660156 40 0.9375 40 L 7.21875 40 C 7.054688 40.589844 6.949219 41.230469 6.90625 41.9375 C 6.890625 42.210938 7 42.488281 7.1875 42.6875 C 7.375 42.886719 7.632813 43 7.90625 43 L 42.09375 43 C 42.367188 43 42.625 42.886719 42.8125 42.6875 C 43.003906 42.488281 43.109375 42.210938 43.09375 41.9375 C 43.050781 41.230469 42.945313 40.589844 42.78125 40 L 49 40 C 49.277344 40 49.539063 39.886719 49.730469 39.683594 C 49.917969 39.484375 50.015625 39.214844 50 38.9375 C 49.894531 37.128906 49.1875 35.730469 48.21875 34.71875 C 47.25 33.707031 46.0625 33.074219 44.90625 32.5625 C 43.75 32.050781 42.617188 31.648438 41.78125 31.21875 C 40.984375 30.808594 40.566406 30.386719 40.375 29.9375 C 40.3125 29.113281 40.308594 28.425781 40.3125 27.625 C 40.375 27.542969 40.5 27.492188 40.5625 27.40625 C 40.761719 27.121094 40.953125 26.804688 41.125 26.4375 C 41.40625 25.84375 41.585938 25.117188 41.71875 24.40625 C 41.929688 24.273438 42.175781 24.25 42.34375 24.03125 C 42.71875 23.539063 42.925781 22.867188 43.03125 21.96875 C 43.097656 21.40625 43.058594 20.910156 42.875 20.46875 C 42.824219 20.351563 42.664063 20.296875 42.59375 20.1875 C 42.800781 19.691406 43.035156 19.234375 43.09375 18.625 C 43.183594 17.699219 43.136719 16.640625 42.875 15.625 C 42.613281 14.609375 42.140625 13.625 41.34375 12.84375 C 40.703125 12.214844 39.800781 11.839844 38.78125 11.6875 L 38.28125 10.59375 C 38.121094 10.234375 37.765625 10.003906 37.375 10 C 35.996094 10 34.597656 10.164063 33.28125 10.5625 C 33.238281 10.460938 33.203125 10.351563 33.15625 10.25 C 32.164063 8.21875 30.464844 7.039063 28.34375 6.84375 L 27.6875 5.5625 C 27.515625 5.222656 27.191406 5 26.8125 5 Z M 36.78125 12.09375 L 37.125 12.9375 C 37.289063 13.304688 37.660156 13.539063 38.0625 13.53125 C 38.941406 13.53125 39.480469 13.800781 39.9375 14.25 C 40.394531 14.699219 40.742188 15.367188 40.9375 16.125 C 41.132813 16.882813 41.191406 17.710938 41.125 18.40625 C 41.058594 19.101563 40.808594 19.664063 40.71875 19.78125 C 40.535156 20.011719 40.464844 20.316406 40.523438 20.605469 C 40.585938 20.894531 40.769531 21.140625 41.03125 21.28125 C 41.054688 21.347656 41.09375 21.492188 41.0625 21.75 C 40.984375 22.40625 40.828125 22.710938 40.75 22.8125 C 40.71875 22.851563 40.691406 22.839844 40.6875 22.84375 C 40.253906 22.925781 39.921875 23.28125 39.875 23.71875 C 39.816406 24.28125 39.578125 25.003906 39.3125 25.5625 C 39.179688 25.839844 39.050781 26.089844 38.9375 26.25 C 38.824219 26.410156 38.6875 26.488281 38.84375 26.40625 C 38.519531 26.578125 38.316406 26.914063 38.3125 27.28125 C 38.3125 28.292969 38.269531 29.117188 38.375 30.3125 C 38.386719 30.398438 38.40625 30.480469 38.4375 30.5625 C 38.863281 31.742188 39.851563 32.472656 40.875 33 C 41.898438 33.527344 43.039063 33.90625 44.09375 34.375 C 45.148438 34.84375 46.097656 35.382813 46.78125 36.09375 C 47.257813 36.589844 47.578125 37.230469 47.78125 38 L 42 38 C 41.96875 38 41.9375 38 41.90625 38 C 40.296875 35.398438 37.355469 34.21875 34.84375 33.21875 C 32.765625 32.390625 30.980469 31.671875 30.4375 30.4375 C 30.351563 29.417969 30.335938 28.632813 30.34375 27.71875 L 30.34375 27.3125 C 31.15625 26.460938 31.972656 24.734375 32.28125 23.15625 C 32.945313 22.800781 33.730469 21.964844 33.96875 19.96875 C 34.082031 19.015625 33.875 18.257813 33.53125 17.75 C 34.09375 16.425781 34.265625 14.414063 33.875 12.46875 C 34.769531 12.226563 35.78125 12.136719 36.78125 12.09375 Z M 14.8125 12.125 L 15.15625 12.84375 C 15.308594 13.160156 15.617188 13.375 15.96875 13.40625 C 15.839844 14.828125 16.03125 16.285156 16.5625 17.71875 C 16.191406 18.234375 15.917969 19.011719 16.03125 19.96875 C 16.269531 21.96875 17.054688 22.804688 17.71875 23.15625 C 18.035156 24.710938 18.863281 26.457031 19.6875 27.3125 L 19.6875 27.6875 C 19.695313 28.605469 19.710938 29.414063 19.625 30.4375 C 19.082031 31.671875 17.273438 32.390625 15.1875 33.21875 C 12.667969 34.21875 9.710938 35.398438 8.09375 38 C 8.0625 38 8.03125 38 8 38 L 2.15625 38 C 2.363281 37.226563 2.675781 36.5625 3.15625 36.0625 C 3.84375 35.347656 4.808594 34.8125 5.875 34.34375 C 6.941406 33.875 8.09375 33.496094 9.125 32.96875 C 10.15625 32.441406 11.164063 31.714844 11.59375 30.53125 C 11.613281 30.449219 11.625 30.367188 11.625 30.28125 C 11.730469 29.078125 11.71875 28.234375 11.71875 27.21875 C 11.722656 26.859375 11.53125 26.523438 11.21875 26.34375 C 11.253906 26.371094 11.261719 26.382813 11.1875 26.34375 C 11.148438 26.3125 11.113281 26.261719 11.0625 26.1875 C 10.945313 26.027344 10.824219 25.78125 10.6875 25.5 C 10.414063 24.9375 10.183594 24.214844 10.125 23.65625 C 10.085938 23.183594 9.71875 22.808594 9.25 22.75 C 9.242188 22.746094 9.230469 22.753906 9.21875 22.75 C 9.210938 22.742188 9.230469 22.730469 9.21875 22.71875 C 9.136719 22.613281 8.984375 22.316406 8.90625 21.65625 C 8.871094 21.359375 8.929688 21.210938 8.96875 21.15625 C 9.007813 21.132813 9.003906 21.121094 9 21.125 C 9.402344 20.863281 9.558594 20.351563 9.375 19.90625 C 8.558594 18.039063 8.664063 16.082031 9.625 14.59375 C 10.511719 13.222656 12.242188 12.28125 14.8125 12.125 Z"></path>
</svg>
