<?xml version="1.0" encoding="iso-8859-1"?>
<!-- Generator: Adobe Illustrator 25.2.1, SVG Export Plug-In . SVG Version: 6.00 Build 0)  -->
<svg version="1.1" id="Layer_1" xmlns="http://www.w3.org/2000/svg" xmlns:xlink="http://www.w3.org/1999/xlink" x="0px" y="0px"
	 viewBox="0 0 64 64" style="enable-background:new 0 0 64 64;" xml:space="preserve">
<path d="M32.515,27.667h18.667v8.667H32.515V27.667z"/>
<path d="M49.27,27.667c0.36,1.389,0.578,2.832,0.578,4.333c0,9.572-7.761,17.333-17.333,17.333S15.182,41.572,15.182,32
	s7.761-17.333,17.333-17.333c4.353,0,8.32,1.616,11.364,4.266l6.155-6.153C45.411,8.568,39.267,6,32.522,6
	C18.159,6,6.515,17.642,6.515,32s11.644,26,26.007,26c21.688,0,26.576-20.135,24.542-30.333H49.27z"/>
</svg>