<svg xmlns="http://www.w3.org/2000/svg" x="0px" y="0px" width="100" height="100" viewBox="0 0 64 64">
<path d="M 32 6 C 25.563809 6 19.527204 8.3098104 14.773438 12.533203 L 11.175781 9.0058594 L 9.2421875 21.353516 L 21.550781 19.177734 L 17.634766 15.337891 C 21.623806 11.883136 26.650401 10 32 10 C 44.131 10 54 19.869 54 32 C 54 44.131 44.131 54 32 54 C 19.869 54 10 44.131 10 32 C 10 31.468 10.019641 30.940969 10.056641 30.417969 L 6.0664062 30.132812 C 6.0224062 30.749813 6 31.372 6 32 C 6 46.336 17.664 58 32 58 C 46.336 58 58 46.336 58 32 C 58 17.664 46.336 6 32 6 z M 30.5 14 L 31 18 L 33 18 L 33.5 14 L 30.5 14 z M 44.021484 18.564453 L 33.25 28.203125 A 4 4 0 0 0 32 28 A 4 4 0 0 0 32 36 A 4 4 0 0 0 32.722656 35.931641 L 40.816406 42.638672 L 42.640625 40.816406 L 35.931641 32.720703 A 4 4 0 0 0 35.796875 30.75 L 45.435547 19.978516 L 44.021484 18.564453 z M 14 30.5 L 14 33.5 L 18 33 L 18 31 L 14 30.5 z M 50 30.5 L 46 31 L 46 33 L 50 33.5 L 50 30.5 z M 31 46 L 30.5 50 L 33.5 50 L 33 46 L 31 46 z"></path>
</svg>