<?xml version="1.0" encoding="iso-8859-1"?>
<!-- Generator: Adobe Illustrator 24.1.2, SVG Export Plug-In . SVG Version: 6.00 Build 0)  -->
<svg version="1.1" xmlns="http://www.w3.org/2000/svg" xmlns:xlink="http://www.w3.org/1999/xlink" x="0px" y="0px"
	 viewBox="0 0 64 64" style="enable-background:new 0 0 64 64;" xml:space="preserve">
<g id="Layer_1">
</g>
<g id="hearts">
</g>
<g id="chat">
</g>
<g id="important-mail">
</g>
<g id="more">
</g>
<g id="happy">
</g>
<g id="filled_message">
</g>
<g id="guest_male">
</g>
<g id="filled_star">
</g>
<g id="filled_like">
</g>
<g id="ask_question">
</g>
<g id="attach">
</g>
<g id="note">
</g>
<g id="sent">
</g>
<g id="crown">
</g>
<g id="contact_card">
</g>
<g id="megaphone">
</g>
<g id="topic">
</g>
<g id="address_book">
</g>
<g id="sad">
</g>
<g id="send_mass_mail">
</g>
<g id="online">
</g>
<g id="open_envelope">
</g>
<g id="high_importance">
</g>
<g id="email_open">
</g>
<g id="rating">
</g>
<g id="feedback">
</g>
<g id="invisible">
	<path d="M49.3,14c0,0,6.7,12,6.7,18s-6.7,18-6.7,18C59,41,62,32,62,32S59,23,49.3,14z"/>
	<path d="M14.7,50C5,41,2,32,2,32s2.29-6.88,9.36-14.63l1.03,1.14C10.45,22.55,8,28.37,8,32C8,38,14.7,50,14.7,50z"/>
	<path d="M32,7c-7.23,0-13.75,3.08-18.32,8.01l2.78,2.89C20.3,13.66,25.84,11,32,11c11.58,0,21,9.42,21,21
		c0,6.44-2.91,12.21-7.49,16.06l2.77,2.89C53.62,46.37,57,39.58,57,32C57,18.21,45.79,7,32,7z M32,53c-11.58,0-21-9.42-21-21
		c0-4.16,1.22-8.05,3.33-11.31l-2.76-3.09C8.69,21.67,7,26.64,7,32c0,13.79,11.21,25,25,25c4.35,0,8.44-1.11,12-3.07l-2.75-3.09
		C38.46,52.23,35.32,53,32,53z"/>
	<path d="M22.29,29.61l10.99,12.3C32.86,41.97,32.43,42,32,42c-5.52,0-10-4.48-10-10C22,31.18,22.1,30.38,22.29,29.61z"/>
	<path d="M42,32c0,3.34-1.64,6.3-4.16,8.11L24.12,25.85C25.95,23.51,28.8,22,32,22c1.87,0,3.61,0.52,5.1,1.41L34,29l1,2h6.95
		C41.98,31.33,42,31.66,42,32z"/>
	<polygon points="56,61 4.086,6.914 6.914,4.086 59.914,57.086 	"/>
</g>
<g id="lol">
</g>
<g id="question">
</g>
<g id="filled_chat">
</g>
<g id="privacy">
</g>
<g id="new_message">
</g>
<g id="send">
</g>
<g id="private2">
</g>
<g id="quote-right">
</g>
<g id="message_group">
</g>
<g id="inbox">
</g>
<g id="push_notifications">
</g>
<g id="private">
</g>
<g id="invite">
</g>
</svg>