<svg xmlns="http://www.w3.org/2000/svg" x="0px" y="0px" width="100" height="100" viewBox="0 0 50 50">
  <path d="M 7.0449219 4 C 6.7678906 3.9896875 6.4915625 4.0940625 6.2890625 4.2890625 C 6.0290625 4.5590625 5.9307812 4.9603125 6.0507812 5.3203125 L 9.0507812 14.320312 C 9.1107813 14.480313 9.2000781 14.630234 9.3300781 14.740234 L 30.041016 33.210938 L 31.316406 30.658203 C 31.605406 30.081203 32.081203 29.605406 32.658203 29.316406 L 35.292969 27.998047 L 16.740234 7.3300781 C 16.630234 7.2000781 16.480312 7.1107813 16.320312 7.0507812 L 7.3203125 4.0507812 C 7.2303125 4.0207812 7.1372656 4.0034375 7.0449219 4 z M 42.955078 4 C 42.862734 4.0034375 42.769688 4.0207813 42.679688 4.0507812 L 33.679688 7.0507812 C 33.519688 7.1107812 33.369766 7.2000781 33.259766 7.3300781 L 26.34375 15.035156 L 32.566406 21.96875 L 40.669922 14.740234 C 40.799922 14.630234 40.889219 14.480313 40.949219 14.320312 L 43.949219 5.3203125 C 44.069219 4.9593125 43.970937 4.5590625 43.710938 4.2890625 C 43.508437 4.0940625 43.232109 3.9896875 42.955078 4 z M 17.591797 24.787109 L 14.707031 27.998047 L 17.341797 29.316406 C 17.918797 29.605406 18.394594 30.081203 18.683594 30.658203 L 19.960938 33.210938 L 23.498047 30.054688 L 17.591797 24.787109 z M 8.1464844 27.011719 C 7.8395 26.966531 7.5224687 27.064219 7.2929688 27.292969 L 6.2929688 28.292969 C 5.9019688 28.683969 5.9019687 29.316031 6.2929688 29.707031 L 18.292969 41.707031 C 18.487969 41.902031 18.745 42 19 42 C 19.255 42 19.510078 41.901078 19.705078 41.705078 L 20.705078 40.705078 C 21.010078 40.401078 21.086531 39.937734 20.894531 39.552734 L 16.894531 31.552734 C 16.798531 31.359734 16.640266 31.202469 16.447266 31.105469 L 8.4472656 27.105469 C 8.3510156 27.058219 8.2488125 27.026781 8.1464844 27.011719 z M 41.851562 27.011719 C 41.749109 27.026828 41.649234 27.057969 41.552734 27.105469 L 33.552734 31.105469 C 33.359734 31.201469 33.202469 31.359734 33.105469 31.552734 L 29.105469 39.552734 C 28.913469 39.937734 28.987969 40.403031 29.292969 40.707031 L 30.292969 41.707031 C 30.487969 41.902031 30.744 42 31 42 C 31.256 42 31.511078 41.901031 31.705078 41.707031 L 43.705078 29.707031 C 44.096078 29.316031 44.096078 28.685922 43.705078 28.294922 L 42.705078 27.294922 C 42.476328 27.066172 42.158922 26.966391 41.851562 27.011719 z M 8.8808594 35.121094 L 5.3378906 40.021484 A 3 3 0 0 0 5 40 A 3 3 0 0 0 2 43 A 3 3 0 0 0 5 46 A 3 3 0 0 0 8 43 A 3 3 0 0 0 7.9863281 42.744141 L 12.902344 39.144531 L 8.8808594 35.121094 z M 41.119141 35.123047 L 37.097656 39.144531 L 42.013672 42.746094 A 3 3 0 0 0 42 43 A 3 3 0 0 0 45 46 A 3 3 0 0 0 48 43 A 3 3 0 0 0 45 40 A 3 3 0 0 0 44.664062 40.023438 L 41.119141 35.123047 z"></path>
</svg>
