<?xml version="1.0" encoding="iso-8859-1"?>
<!-- Generator: Adobe Illustrator 25.4.1, SVG Export Plug-In . SVG Version: 6.00 Build 0)  -->
<svg version="1.1" xmlns="http://www.w3.org/2000/svg" xmlns:xlink="http://www.w3.org/1999/xlink" x="0px" y="0px"
	 viewBox="0 0 64 64" style="enable-background:new 0 0 64 64;" xml:space="preserve">
<g id="&#x421;&#x43B;&#x43E;&#x439;_1">
</g>
<g id="Email_Open">
</g>
<g id="Money">
	<g>
		<path d="M51.976,45.284C47.67,51.738,40.324,56,32,56C18.766,56,8,45.234,8,32S18.766,8,32,8c8.494,0,15.966,4.44,20.233,11.117
			l5.959,2.979C54.191,11.521,43.976,4,32,4C16.536,4,4,16.536,4,32s12.536,28,28,28c11.719,0,21.752-7.203,25.926-17.421
			L51.976,45.284z"/>
		<polygon points="50,22 64,32 50,42 		"/>
		<polygon points="52,35.954 52,28.046 27,30 27,34 		"/>
	</g>
</g>
</svg>