<svg xmlns="http://www.w3.org/2000/svg" x="0px" y="0px" width="100" height="100" viewBox="0 0 64 64">
  <path d="M 56 5 L 56 53 L 59 53 L 59 5 L 56 5 z M 54 8 C 46.964 15.88 37.693 18.627734 33 19.552734 L 33 38.449219 C 37.478 39.331219 46.126391 41.873031 53.025391 48.957031 L 54 8 z M 15 19 L 13 21 L 5 22 L 5 36 L 13 37 L 15 39 L 17.144531 39 L 22.636719 56.544922 C 22.918719 57.448922 23.538813 58.184234 24.382812 58.615234 C 24.884812 58.872234 25.427609 59.001953 25.974609 59.001953 C 26.345609 59.001953 26.718078 58.941312 27.080078 58.820312 L 30.779297 57.597656 C 32.446297 57.041656 33.376562 55.224828 32.851562 53.548828 L 32.605469 52.765625 C 30.999469 52.625625 29.839469 51.973625 29.355469 50.390625 C 29.283469 50.155625 28.827828 48.707687 28.423828 47.429688 C 30.000828 46.499688 30 45 30 45 L 28 41.226562 L 28 39 L 30 39 L 30 19 L 15 19 z M 8 24 L 13 24 L 13 26 L 8 26 L 8 24 z M 8 28 L 13 28 L 13 30 L 8 30 L 8 28 z M 8 32 L 13 32 L 13 34 L 8 34 L 8 32 z"></path>
</svg>
