<?xml version="1.0" encoding="iso-8859-1"?>
<!-- Generator: Adobe Illustrator 25.2.1, SVG Export Plug-In . SVG Version: 6.00 Build 0)  -->
<svg version="1.1" id="Layer_1" xmlns="http://www.w3.org/2000/svg" xmlns:xlink="http://www.w3.org/1999/xlink" x="0px" y="0px"
	 viewBox="0 0 64 64" style="enable-background:new 0 0 64 64;" xml:space="preserve">
<path d="M32.342,28.465C32.229,28.481,32.117,28.5,32,28.5c-1.378,0-2.5-1.122-2.5-2.5s1.122-2.5,2.5-2.5s2.5,1.122,2.5,2.5
	c0,0.209-0.033,0.408-0.082,0.602l2.102,2.523C37.137,28.236,37.5,27.16,37.5,26c0-3.033-2.467-5.5-5.5-5.5s-5.5,2.467-5.5,5.5
	s2.467,5.5,5.5,5.5c0.537,0,1.055-0.081,1.546-0.225L32.342,28.465z"/>
<path d="M48.722,39.2l-10.947-1.649l-4.951-9.902c-0.34-0.679-1.309-0.679-1.649,0l-4.951,9.903L15.278,39.2
	c-0.751,0.113-1.051,1.035-0.51,1.568l7.887,7.768L20.84,59.458c-0.125,0.749,0.66,1.319,1.334,0.969L32,55.326l9.825,5.1
	c0.674,0.35,1.458-0.22,1.334-0.969l-1.815-10.921l7.888-7.769C49.773,40.235,49.473,39.313,48.722,39.2z"/>
<g>
	<polygon points="18,6 12,6 12,15 18,17.7 	"/>
	<polygon points="46,6 46,17.7 52,15 52,6 	"/>
	<path d="M42,6H22v13.5l6.532,2.939c2.206,0.993,4.731,0.993,6.936,0L42,19.5V6z"/>
</g>
</svg>