<?xml version="1.0" encoding="iso-8859-1"?>
<!-- Generator: Adobe Illustrator 25.2.3, SVG Export Plug-In . SVG Version: 6.00 Build 0)  -->
<svg version="1.1" baseProfile="basic" id="Layer_1"
	 xmlns="http://www.w3.org/2000/svg" xmlns:xlink="http://www.w3.org/1999/xlink" x="0px" y="0px" viewBox="0 0 64 64"
	 xml:space="preserve">
<path d="M58.15,55.78l-2.3,4.44L42.6,53.61l-3.32-1.66c-1.29-0.65-2.51-1.46-3.62-2.4c-0.68-0.56-1.31-1.17-1.9-1.83
	c1.37-1.83,2.43-3.71,3.23-5.46c0.65,1.09,1.47,2.1,2.43,2.95c0.75,0.67,1.58,1.27,2.47,1.76l3.25,1.76L58.15,55.78z"/>
<polygon points="41.574,15 32,2.414 22.426,15 "/>
<path d="M35.5,14l-0.264,14.302l-0.138,7.183c-0.08,2.842-0.773,5.669-2.074,8.182c-1.279,2.522-3.13,4.74-5.37,6.441
	c-0.555,0.433-1.143,0.816-1.739,1.186c-0.597,0.343-1.266,0.706-1.761,0.945l-3.2,1.596l-12.8,6.384l-2.307-4.436l12.577-6.813
	l3.144-1.703c0.569-0.3,0.934-0.529,1.365-0.789c0.406-0.276,0.809-0.554,1.183-0.87c1.517-1.236,2.74-2.815,3.555-4.576
	c0.835-1.753,1.228-3.691,1.219-5.611l-0.126-7.119L28.5,14H35.5z"/>
</svg>