<?xml version="1.0" encoding="iso-8859-1"?>
<!-- Generator: Adobe Illustrator 25.4.1, SVG Export Plug-In . SVG Version: 6.00 Build 0)  -->
<svg version="1.1" id="Layer_1" xmlns="http://www.w3.org/2000/svg" xmlns:xlink="http://www.w3.org/1999/xlink" x="0px" y="0px"
	 viewBox="0 0 64 64" style="enable-background:new 0 0 64 64;" xml:space="preserve">
<path d="M15,51l-2,2v4h38v-4l-2-2H15z"/>
<circle cx="32" cy="14" r="8"/>
<path d="M36,21h-8c-1.105,0-2,0.895-2,2v0c0,1.105,0.895,2,2,2h8c1.105,0,2-0.895,2-2v0C38,21.895,37.105,21,36,21z"/>
<path d="M46.95,48.03l-30.24,0.95c2.92-8.86,11.16-7.81,12.19-21.92l6.28,0.89C36.44,40.63,43.84,40.35,46.95,48.03z"/>
</svg>