<?xml version="1.0" encoding="iso-8859-1"?>
<!-- Generator: Adobe Illustrator 25.2.3, SVG Export Plug-In . SVG Version: 6.00 Build 0)  -->
<svg version="1.1" xmlns="http://www.w3.org/2000/svg" xmlns:xlink="http://www.w3.org/1999/xlink" x="0px" y="0px"
	 viewBox="0 0 64 64" style="enable-background:new 0 0 64 64;" xml:space="preserve">
<g id="Layer_1">
	<g style="display:none;">
		<line style="display:inline;fill:none;stroke:#000000;stroke-width:4;stroke-miterlimit:10;" x1="12" y1="57" x2="52" y2="57"/>
		<line style="display:inline;fill:none;stroke:#000000;stroke-width:4;stroke-miterlimit:10;" x1="32" y1="32" x2="32" y2="57"/>
		<path style="display:inline;fill:none;stroke:#000000;stroke-width:4;stroke-miterlimit:10;" d="M32,32c0,0,3-2,6-2s6,2,6,2h1
			c0,0,3-2,6-2s6,2,6,2h1c0-11.598-13.85-21-26-21S6,20.402,6,32h1c0,0,3-2,6-2s6,2,6,2h1c0,0,3-2,6-2S32,32,32,32"/>
		<path style="display:inline;fill:none;stroke:#000000;stroke-width:4;stroke-miterlimit:10;" d="M33,11c0,0,11.5,6,11.5,21"/>
		<path style="display:inline;fill:none;stroke:#000000;stroke-width:4;stroke-miterlimit:10;" d="M31,11c0,0-11.5,6-11.5,21"/>
		<line style="display:inline;fill:none;stroke:#000000;stroke-width:4;stroke-miterlimit:10;" x1="32" y1="5" x2="32" y2="31"/>
	</g>
</g>
<g id="shutdown">
</g>
<g id="laptop">
</g>
<g id="restart">
</g>
<g id="workstation">
</g>
<g id="computer">
</g>
<g id="under_computer">
</g>
<g id="keyboard">
</g>
<g id="hdd">
</g>
<g id="imac">
</g>
<g id="mouse">
</g>
<g id="region_code">
</g>
<g id="router">
</g>
<g id="nas">
</g>
<g id="cd">
</g>
<g id="ssd">
</g>
<g id="switch">
</g>
<g id="scanner">
</g>
<g id="hub">
</g>
<g id="memory_slot">
</g>
<g id="enter_key">
</g>
<g id="usb_connector">
</g>
<g id="network_cable">
</g>
<g id="mouse_left_click">
</g>
<g id="wacom_tablet">
</g>
<g id="c_drive">
</g>
<g id="power_off_button">
</g>
<g id="network_drive">
</g>
<g id="device_manager">
</g>
<g id="micro_sd">
</g>
<g id="root_server">
</g>
<g id="sd">
</g>
<g id="generic_mouse">
</g>
<g id="usb_connected">
</g>
<g id="network_card">
</g>
<g id="laptop_coding">
</g>
<g id="backspace">
</g>
<g id="reboot">
	<path d="M57.24,31.295c0.066,1.111,0.043,2.231-0.058,3.327c-0.263,2.901-1.027,5.757-2.235,8.402
		c-2.434,5.304-6.755,9.737-12.051,12.264c-2.64,1.277-5.495,2.078-8.412,2.402c-2.912,0.302-5.888,0.117-8.751-0.584
		c-5.714-1.394-10.923-4.81-14.455-9.551c-3.561-4.734-5.384-10.704-5.133-16.641c0.261-5.939,2.644-11.764,6.649-16.191
		c3.979-4.451,9.583-7.443,15.503-8.314c2.972-0.448,6.018-0.37,8.977,0.208c2.953,0.599,5.789,1.695,8.384,3.241l-3.106,5.081
		c-1.987-1.238-4.176-2.136-6.465-2.644c-2.285-0.488-4.66-0.589-6.999-0.287c-4.667,0.61-9.102,2.858-12.327,6.348
		c-3.243,3.453-5.243,8.07-5.536,12.819c-0.293,4.749,1.103,9.645,3.942,13.502c2.806,3.895,7.025,6.748,11.694,7.948
		c2.339,0.599,4.767,0.801,7.174,0.577c2.405-0.234,4.786-0.861,6.979-1.887c4.401-2.026,8.034-5.666,10.143-10.061
		c1.461-3.037,2.16-6.432,2.047-9.794L57.24,31.295z"/>
	<polygon points="54.625,18.74 39.407,18.939 47.47,5.305 	"/>
</g>
<g id="mouse_scrolling">
</g>
<g id="voip_gateway">
</g>
<g id="master">
</g>
</svg>