<?xml version="1.0" encoding="iso-8859-1"?>
<!-- Generator: Adobe Illustrator 25.2.3, SVG Export Plug-In . SVG Version: 6.00 Build 0)  -->
<svg version="1.1" id="Layer_1" xmlns="http://www.w3.org/2000/svg" xmlns:xlink="http://www.w3.org/1999/xlink" x="0px" y="0px"
	 viewBox="0 0 64 64" style="enable-background:new 0 0 64 64;" xml:space="preserve">
<path d="M54.21,45.08c-3.09,5.11-8,9.03-13.61,10.98c-2.81,0.96-5.78,1.44-8.74,1.41c-2.96-0.05-5.9-0.58-8.67-1.61
	c-5.56-2.04-10.31-6.08-13.26-11.17c-1.48-2.55-2.51-5.34-3.04-8.23c-0.25-1.33-0.39-2.69-0.41-4.04l4.05-0.31
	c0.1,3.67,1.14,7.3,3.03,10.44c2.53,4.22,6.53,7.52,11.14,9.14c2.3,0.82,4.76,1.22,7.19,1.23c2.44-0.01,4.87-0.43,7.15-1.26
	c4.58-1.65,8.55-4.92,11-9.09c2.48-4.15,3.42-9.19,2.67-13.94c-0.74-4.75-3.19-9.2-6.78-12.36c-3.56-3.19-8.24-5.03-12.99-5.2
	c-2.37-0.08-4.74,0.25-6.99,0.96c-2.25,0.73-4.37,1.84-6.25,3.26l-3.6-4.8c2.46-1.8,5.21-3.17,8.12-4.06
	c2.91-0.86,5.97-1.23,8.99-1.06c6.03,0.32,11.95,2.78,16.36,6.89c4.45,4.06,7.39,9.68,8.22,15.62
	C58.6,33.82,57.34,39.99,54.21,45.08z"/>
<polygon points="8.17,20.252 23.389,19.083 13.985,6.139 "/>
</svg>