<?xml version="1.0" encoding="iso-8859-1"?>
<!-- Generator: Adobe Illustrator 25.2.1, SVG Export Plug-In . SVG Version: 6.00 Build 0)  -->
<svg version="1.1" id="&#x421;&#x43B;&#x43E;&#x439;_1"
	 xmlns="http://www.w3.org/2000/svg" xmlns:xlink="http://www.w3.org/1999/xlink" x="0px" y="0px" viewBox="0 0 64 64"
	 style="enable-background:new 0 0 64 64;" xml:space="preserve">
<polygon points="40.4,12 23.6,12 10,14 10,17 54,17 54,14 "/>
<path d="M24,10v3h4v-3h8v3h4v-3c0-2.209-1.791-4-4-4h-8C25.791,6,24,7.791,24,10z"/>
<path d="M12,19l2.702,33.323C14.87,54.4,16.605,56,18.689,56h26.623c2.084,0,3.818-1.599,3.987-3.676L51.923,20L12,19z
	 M42.414,44.586l-2.828,2.828L32,39.828l-7.586,7.586l-2.828-2.828L29.172,37l-7.586-7.586l2.828-2.828L32,34.172l7.586-7.586
	l2.828,2.828L34.828,37L42.414,44.586z"/>
</svg>