<?xml version="1.0" encoding="iso-8859-1"?>
<!-- Generator: Adobe Illustrator 25.4.1, SVG Export Plug-In . SVG Version: 6.00 Build 0)  -->
<svg version="1.1" xmlns="http://www.w3.org/2000/svg" xmlns:xlink="http://www.w3.org/1999/xlink" x="0px" y="0px"
	 viewBox="0 0 64 64" style="enable-background:new 0 0 64 64;" xml:space="preserve">
<g id="&#x421;&#x43B;&#x43E;&#x439;_1">
	<rect x="34" y="8" width="6" height="11"/>
	<path d="M51,8h-5v12c0,1.105-0.895,2-2,2H24c-1.105,0-2-0.895-2-2V8H8v48h48V13L51,8z M14,52h-3v-3h3V52z M47,50
		c0,1.105-0.895,2-2,2H19c-1.105,0-2-0.895-2-2V30c0-1.105,0.895-2,2-2h26c1.105,0,2,0.895,2,2V50z M53,52h-3v-3h3V52z"/>
</g>
<g id="Email_Open">
</g>
<g id="Money">
</g>
</svg>