<svg xmlns="http://www.w3.org/2000/svg" x="0px" y="0px" width="100" height="100" viewBox="0 0 64 64">
<path d="M 11 9 C 9.895 9 9 9.895 9 11 L 9 15 L 4 20 L 4 24 L 10 24 L 10 20 L 14 15 L 17 15 L 14 20 L 14 24 L 20 24 L 20 20 L 22 15 L 25 15 L 24 20 L 24 24 L 30 24 L 30 20 L 30 15 L 34 15 L 34 20 L 34 24 L 40 24 L 40 20 L 39 15 L 42 15 L 44 20 L 44 24 L 50 24 L 50 20 L 47 15 L 50 15 L 54 20 L 54 24 L 60 24 L 60 20 L 55 15 L 55 11 C 55 9.895 54.105 9 53 9 L 11 9 z M 7 27 L 7 56 L 36 56 L 36 34 L 48 34 L 48 44 L 44 44 L 44 46 C 44 46.552 44.448 47 45 47 L 48 47 L 48 56 L 57 56 L 57 28 L 7 27 z M 16 34 L 30 34 L 30 49 L 16 49 L 16 34 z"></path>
</svg>