<?xml version="1.0" encoding="iso-8859-1"?>
<!-- Generator: Adobe Illustrator 24.1.2, SVG Export Plug-In . SVG Version: 6.00 Build 0)  -->
<svg version="1.1" baseProfile="basic" id="Layer_1"
	 xmlns="http://www.w3.org/2000/svg" xmlns:xlink="http://www.w3.org/1999/xlink" x="0px" y="0px" viewBox="0 0 64 64"
	 xml:space="preserve">
<g>
	<path d="M48.005,42.82c-1.27,2.88-2.05,5.93-2.48,8.99c-0.3,2.07-0.45,4.13-0.5,6.19h-11.9c0.38-5.65,1.71-11.22,4.45-16.07
		c1.59-2.85,3.64-5.42,6.05-7.6C45.795,32.34,48.39,30.4,51,29c3,0,5.875,0,8.825,0c-2.43,1.72-4.72,3.66-6.72,5.9
		C51.015,37.25,49.265,39.93,48.005,42.82z"/>
</g>
<g>
	<path d="M34.005,42.82c-1.27,2.88-2.05,5.93-2.48,8.99c-0.3,2.07-0.45,4.13-0.5,6.19h-11.9c0.38-5.65,1.71-11.22,4.45-16.07
		c1.59-2.85,3.64-5.42,6.05-7.6C31.795,32.34,34.39,30.4,37,29c3,0,5.875,0,8.825,0c-2.43,1.72-4.72,3.66-6.72,5.9
		C37.015,37.25,35.265,39.93,34.005,42.82z"/>
</g>
<g>
	<path d="M20.005,42.82c-1.27,2.88-2.05,5.93-2.48,8.99c-0.3,2.07-0.45,4.13-0.5,6.19h-11.9c0.38-5.65,1.71-11.22,4.45-16.07
		c1.59-2.85,3.64-5.42,6.05-7.6C17.795,32.34,20.39,30.4,23,29c3,0,5.875,0,8.825,0c-2.43,1.72-4.72,3.66-6.72,5.9
		C23.015,37.25,21.265,39.93,20.005,42.82z"/>
</g>
<g>
	<path d="M60.005,32.51V54c0,2.21-1.79,4-4,4h-8.89c0.11-1.97,0.3-3.92,0.63-5.84c0.49-2.89,1.3-5.71,2.54-8.31
		c1.23-2.61,2.88-5,4.85-7.09C56.615,35.19,58.255,33.78,60.005,32.51z"/>
</g>
<path d="M9,29c-2.761,0-5,2.239-5,5v14v1.16c0.458-2.16,1.103-4.294,2.005-6.34c1.26-2.89,3.01-5.57,5.1-7.92
	c2-2.24,4.29-4.18,6.72-5.9H9z"/>
<polygon points="22,15.9 15,11 8,15.9 8,17.9 15,13 22,17.9 "/>
<polygon points="56,15.9 49,11 42,15.9 42,17.9 49,13 56,17.9 "/>
<path d="M15,15l-6,4v8h12v-8L15,15z M17,24h-4v-4h4V24z"/>
<polygon points="41,13 32,7 23,13 23,15 32,9 41,15 "/>
<polygon points="32,11 24,16 24,27 30,27 30,20 34,20 34,27 40,27 40,16 "/>
<path d="M49,15l-6,4v8h12v-8L49,15z M51,24h-4v-4h4V24z"/>
</svg>