<?xml version="1.0" encoding="iso-8859-1"?>
<!-- Generator: Adobe Illustrator 25.2.3, SVG Export Plug-In . SVG Version: 6.00 Build 0)  -->
<svg version="1.1" id="Layer_1" xmlns="http://www.w3.org/2000/svg" xmlns:xlink="http://www.w3.org/1999/xlink" x="0px" y="0px"
	 viewBox="0 0 64 64" style="enable-background:new 0 0 64 64;" xml:space="preserve">
<path style="fill-rule:evenodd;clip-rule:evenodd;" d="M62.04,29.38V27l-5.926-0.824c-0.304-0.062-0.618-0.107-0.938-0.13L54.848,26
	l0.002,0.027c-0.623-0.013-1.255,0.068-1.854,0.301c-1.133,0.441-1.946,1.319-2.354,2.539c-1.02,3.058-0.467,4.86,2.56,11.921
	c1.392,3.247,0.89,5.758,0.889,5.765c-0.247,1.076,0.426,2.149,1.502,2.396C55.743,48.984,55.894,49,56.042,49
	c0.911,0,1.735-0.627,1.947-1.553c0.034-0.15,0.821-3.727-1.111-8.235c-2.963-6.913-2.954-7.54-2.44-9.079
	c0.015-0.045,0.028-0.074,0.029-0.085c0.249-0.09,0.904,0.018,1.61,0.266L57.04,32h5v-1c-1.778,0.102-4,0-4-2.5
	C59.04,29.5,60.04,29.436,62.04,29.38z"/>
<circle style="fill-rule:evenodd;clip-rule:evenodd;" cx="18.04" cy="48" r="1"/>
<circle style="fill-rule:evenodd;clip-rule:evenodd;" cx="26.04" cy="48" r="1"/>
<circle style="fill-rule:evenodd;clip-rule:evenodd;" cx="34.04" cy="48" r="1"/>
<circle style="fill-rule:evenodd;clip-rule:evenodd;" cx="42.04" cy="48" r="1"/>
<path style="fill-rule:evenodd;clip-rule:evenodd;" d="M51.186,32.141c0.723,3.157,1.366,6.068,1.827,8.83
	c0.155,1.009-0.139,2.035-0.804,2.81C51.545,44.554,50.575,45,49.554,45c-1.027,0-2.223,0-3.543,0
	c-0.914-1.204-2.346-1.994-3.971-1.994S38.983,43.796,38.069,45c-0.018,0-0.036,0-0.054,0c-0.914-1.207-2.348-2-3.976-2
	s-3.062,0.793-3.976,2c-0.018,0-0.036,0-0.054,0c-0.914-1.204-2.346-1.994-3.971-1.994S22.983,43.796,22.069,45
	c-0.018,0-0.036,0-0.054,0c-0.914-1.207-2.348-2-3.976-2s-3.062,0.793-3.976,2c-1.45,0-2.704,0-3.679,0
	C9.09,45,8.04,43.95,8.04,42.655V38C8.04,38,2,41.958,2,48.833C2,56.854,8.96,58,8.96,58h26.787c2.338-0.059,4.196-0.223,6.293-1
	c1.349-0.5,2.26-1,4-1c2,0,3,1,3,1s2-3,4-3c1.173,0,2.686,1.373,3.74,2.511c1.444-1.531,3.26-4.289,3.26-8.511
	C60.04,41,51.186,32.141,51.186,32.141z M42.04,45.006c1.654,0,3,1.345,3,2.997S43.694,51,42.04,51s-3-1.345-3-2.997
	S40.386,45.006,42.04,45.006z M34.04,45c1.654,0,3,1.345,3,2.997s-1.346,2.997-3,2.997s-3-1.345-3-2.997S32.386,45,34.04,45z
	 M26.04,45.006c1.654,0,3,1.345,3,2.997S27.694,51,26.04,51s-3-1.345-3-2.997S24.386,45.006,26.04,45.006z M18.04,45
	c1.654,0,3,1.345,3,2.997s-1.346,2.997-3,2.997s-3-1.345-3-2.997S16.386,45,18.04,45z"/>
<g>
	<polygon style="fill-rule:evenodd;clip-rule:evenodd;" points="31,3 29.04,3 28.582,10 31.398,10 	"/>
	<path style="fill-rule:evenodd;clip-rule:evenodd;" d="M45.829,11.105L45.276,10h-4.218c1.5,7,1.36,18-1.037,26H39.04
		c0.735-8.551,0.862-17.904-1.998-26H32.04c1.5,7,1.387,18-1.01,26h-0.99c0.735-8.553,0.862-17.902-2-26h-6c1.5,7,1.396,18-1,26h-1
		c0.735-8.553,0.862-17.902-2-26h-6.827l0.941,2.666c2.318,6.57,2.318,18.098,0,24.668L11.213,40H28.04v3.605l2,1.895l2-1.895V40
		h13.236l0.553-1.105C49.595,31.363,49.595,18.637,45.829,11.105z"/>
</g>
</svg>