<svg xmlns="http://www.w3.org/2000/svg" x="0px" y="0px" width="100" height="100" viewBox="0 0 50 50">
  <path d="M 1 0 C 0.449219 0 0 0.449219 0 1 L 0 49 C 0 49.554688 0.449219 50 1 50 C 1.070313 50 1.121094 49.984375 1.1875 49.96875 L 1.1875 50 L 4.5625 50 C 4.5625 50 5.03125 48.28125 5.3125 47.8125 C 5.59375 47.347656 6.078125 46.125 8.3125 46.3125 C 10.546875 46.5 13.542969 47.058594 15.40625 46.78125 C 17.265625 46.5 17.71875 45.304688 17.8125 44.5625 C 17.90625 43.820313 17.34375 41.46875 17.34375 41.46875 C 17.34375 41.46875 18.445313 40.890625 18.75 40.75 C 19.199219 40.546875 19.105469 39.835938 18.6875 39.59375 C 15.789063 38.484375 14.78125 36.5 14.78125 36.5 C 14.78125 36.5 18.1875 36.007813 19.25 35.75 C 19.984375 35.570313 20.1875 35.183594 20.1875 34.625 C 20.1875 34.066406 19.5 31.78125 19.5 31.78125 C 19.5 31.78125 23 31.257813 23 29.9375 C 23 29.007813 22.277344 28.242188 21.4375 27.125 C 20.601563 26.007813 18.398438 23.113281 17.96875 22.40625 C 17.539063 21.699219 17.691406 21.058594 18.15625 20.40625 C 18.621094 19.753906 19.273438 19.484375 18.8125 17.84375 C 18.589844 17.042969 16.9375 12.0625 16.9375 12.0625 C 19.085938 10.054688 18.710938 0.460938 1.15625 0.03125 C 1.109375 0.0234375 1.050781 0 1 0 Z M 36.03125 21.96875 C 35.957031 21.972656 35.882813 21.980469 35.8125 22 C 35.386719 22.078125 35.0625 22.417969 35 22.84375 L 31.8125 41.15625 L 28.96875 29.75 C 28.859375 29.328125 28.488281 29.023438 28.050781 29.003906 C 27.613281 28.980469 27.214844 29.246094 27.0625 29.65625 L 24.3125 37 L 23 37 C 22.640625 36.996094 22.304688 37.183594 22.121094 37.496094 C 21.941406 37.808594 21.941406 38.191406 22.121094 38.503906 C 22.304688 38.816406 22.640625 39.003906 23 39 L 25 39 C 25.417969 39 25.792969 38.738281 25.9375 38.34375 L 27.8125 33.34375 L 31.03125 46.25 C 31.136719 46.726563 31.570313 47.054688 32.054688 47.03125 C 32.542969 47.007813 32.941406 46.640625 33 46.15625 L 36.1875 27.84375 L 40.03125 43.25 C 40.144531 43.691406 40.542969 44 41 44 C 41.457031 44 41.855469 43.691406 41.96875 43.25 L 44.96875 32 L 48.03125 44.25 C 48.167969 44.785156 48.714844 45.105469 49.25 44.96875 C 49.785156 44.832031 50.105469 44.285156 49.96875 43.75 L 45.96875 27.75 C 45.855469 27.308594 45.457031 27 45 27 C 44.542969 27 44.144531 27.308594 44.03125 27.75 L 41.03125 39 L 36.96875 22.75 C 36.871094 22.308594 36.484375 21.984375 36.03125 21.96875 Z"></path>
</svg>
