<?xml version="1.0" encoding="iso-8859-1"?>
<!-- Generator: Adobe Illustrator 25.2.3, SVG Export Plug-In . SVG Version: 6.00 Build 0)  -->
<svg version="1.1" baseProfile="basic" id="Layer_1"
	 xmlns="http://www.w3.org/2000/svg" xmlns:xlink="http://www.w3.org/1999/xlink" x="0px" y="0px" viewBox="0 0 64 64"
	 xml:space="preserve">
<path d="M32,50.652C44.75,50.652,55.9,47,55.9,47c0.326-4.5-1.335-7.772-1.335-7.772c-5.38,2.283-14.315,3.587-14.315,3.587
	l-5.511-6.554l2.641-17.478c0,0-2.967-0.783-5.38-0.783s-5.38,0.783-5.38,0.783l2.641,17.478l-5.511,6.554
	c0,0-8.935-1.304-14.315-3.587c0,0-1.661,3.272-1.335,7.772C8.1,47,19.25,50.652,32,50.652z"/>
<path d="M11.962,37.255c0,0,1.125-11.299,12.082-15.75l2.984,13.573l-4.231,5.332C22.796,40.41,17.587,39.505,11.962,37.255z"/>
<path d="M11.277,30.701c0,0,1.565-5.087,5.918-9.196c0,0-10.908-3.62-7.679-16.484L7.535,4.068c0,0-4.492,4.769-4.492,12.432
	S11.277,30.701,11.277,30.701z"/>
<path d="M52.038,37.255c0,0-1.125-11.299-12.082-15.75l-2.984,13.573l4.231,5.332C41.204,40.41,46.413,39.505,52.038,37.255z"/>
<path d="M52.723,30.701c0,0-1.565-5.087-5.918-9.196c0,0,10.908-3.62,7.679-16.484l1.981-0.954c0,0,4.492,4.769,4.492,12.432
	S52.723,30.701,52.723,30.701z"/>
<path d="M25.649,50.371c0,0,2.351,3.629,4.362,8.934c0,0,1.117,0.546,1.989,0.546s1.989-0.546,1.989-0.546
	C36,54,38.351,50.371,38.351,50.371H25.649z"/>
</svg>