<svg xmlns="http://www.w3.org/2000/svg" x="0px" y="0px" width="100" height="100" viewBox="0 0 50 50">
  <path d="M 24 0 C 23.449219 0 23 0.449219 23 1 L 23 4 C 23 4.550781 23.449219 5 24 5 C 26.242188 5 27.003906 5.25 27.8125 5.5 C 28.628906 5.753906 29.480469 6 31.5 6 C 35.796875 6 39.589844 2.832031 39.75 2.65625 C 40.078125 2.292969 40.085938 1.757813 39.78125 1.375 C 39.476563 0.992188 38.929688 0.886719 38.5 1.125 C 38.484375 1.132813 36.917969 2 33.40625 2 C 31.359375 2 30.496094 1.617188 29.5 1.15625 C 28.335938 0.621094 27.015625 0 24 0 Z M 23 6.8125 L 23 9 L 11 9 C 10.65625 9 10.339844 9.179688 10.15625 9.46875 C 9.972656 9.757813 9.945313 10.128906 10.09375 10.4375 C 10.113281 10.476563 12 14.488281 12 20 C 12 25.496094 9.121094 31.503906 9.09375 31.5625 C 8.945313 31.875 8.972656 32.242188 9.15625 32.53125 C 9.339844 32.824219 9.65625 33 10 33 L 36.90625 33 C 37.226563 33 37.53125 32.855469 37.71875 32.59375 C 37.851563 32.40625 41 27.949219 41 20.90625 C 41 13.851563 37.824219 9.585938 37.6875 9.40625 C 37.496094 9.15625 37.21875 9 36.90625 9 L 25 9 L 25 7.03125 C 24.710938 7.019531 24.386719 7 24 7 C 23.648438 7 23.3125 6.925781 23 6.8125 Z M 45.59375 29 C 42.316406 29 41.070313 31.480469 40.0625 33.46875 C 38.953125 35.660156 38.164063 37 36 37 L 25 37 L 25 35 L 23 35 L 23 37 L 9 37 C 7.976563 37 7.210938 36.742188 6.71875 36.21875 C 5.933594 35.382813 6 34.070313 6 34.0625 C 6.027344 33.679688 5.832031 33.316406 5.5 33.125 C 5.167969 32.933594 4.753906 32.941406 4.4375 33.15625 C 4.257813 33.277344 0 36.21875 0 41.6875 C 0 43.304688 0.386719 44.738281 1.0625 45.9375 C 1.179688 45.925781 1.285156 45.90625 1.40625 45.90625 C 1.742188 45.90625 2.058594 45.9375 2.4375 45.96875 C 2.699219 45.988281 2.9375 46 3.1875 46 C 4.316406 46 5.945313 45.671875 6.8125 44.96875 C 7.34375 44.535156 8 44.3125 8.6875 44.3125 C 9.375 44.3125 10.058594 44.535156 10.59375 44.96875 C 11.460938 45.675781 13.058594 46 14.1875 46 C 15.316406 46 16.945313 45.671875 17.8125 44.96875 C 18.34375 44.535156 19 44.3125 19.6875 44.3125 C 20.375 44.3125 21.058594 44.535156 21.59375 44.96875 C 22.460938 45.675781 24.058594 46 25.1875 46 C 26.316406 46 27.941406 45.679688 28.8125 44.96875 C 29.347656 44.535156 30 44.3125 30.6875 44.3125 C 31.375 44.3125 32.0625 44.535156 32.59375 44.96875 C 33.460938 45.675781 35.058594 46 36.1875 46 C 37.316406 46 38.941406 45.679688 39.8125 44.96875 C 40.347656 44.535156 41 44.3125 41.6875 44.3125 C 42.375 44.3125 43.0625 44.535156 43.59375 44.96875 C 44.460938 45.675781 46.058594 46 47.1875 46 C 47.636719 46 47.839844 45.921875 47.875 45.90625 C 48.230469 45.761719 48.617188 45.6875 49 45.6875 C 49.246094 45.6875 49.488281 45.722656 49.71875 45.78125 C 49.894531 45.191406 50 44.582031 50 43.90625 C 50 41.667969 48.878906 40.082031 47.875 38.6875 C 47.035156 37.523438 46.3125 36.53125 46.3125 35.3125 C 46.3125 35.066406 46.367188 33.84375 47.8125 33.84375 C 48.089844 33.84375 48.414063 33.878906 48.75 33.96875 C 49.085938 34.058594 49.433594 33.953125 49.6875 33.71875 C 49.941406 33.480469 50.035156 33.152344 49.96875 32.8125 C 49.707031 31.496094 48.457031 29 45.59375 29 Z M 8.6875 46.3125 C 8.464844 46.3125 8.246094 46.382813 8.0625 46.53125 C 6.71875 47.621094 4.59375 48 3.1875 48 C 2.839844 48 2.515625 47.960938 2.21875 47.9375 C 1.917969 47.910156 1.660156 47.90625 1.40625 47.90625 C 0.855469 47.90625 0.40625 48.351563 0.40625 48.90625 C 0.40625 49.460938 0.855469 49.90625 1.40625 49.90625 C 1.609375 49.90625 1.824219 49.917969 2.0625 49.9375 C 2.410156 49.96875 2.777344 50 3.1875 50 C 4.796875 50 6.992188 49.605469 8.6875 48.53125 C 10.382813 49.605469 12.578125 50 14.1875 50 C 15.796875 50 17.992188 49.605469 19.6875 48.53125 C 21.382813 49.605469 23.578125 50 25.1875 50 C 26.796875 50 28.992188 49.605469 30.6875 48.53125 C 32.378906 49.605469 34.578125 50 36.1875 50 C 37.796875 50 39.992188 49.605469 41.6875 48.53125 C 43.378906 49.605469 45.578125 50 47.1875 50 C 48.011719 50 48.757813 49.871094 49.375 49.625 C 49.886719 49.417969 50.140625 48.824219 49.9375 48.3125 C 49.730469 47.800781 49.136719 47.578125 48.625 47.78125 C 48.246094 47.933594 47.757813 48 47.1875 48 C 45.78125 48 43.683594 47.621094 42.34375 46.53125 C 41.976563 46.230469 41.429688 46.230469 41.0625 46.53125 C 39.71875 47.621094 37.59375 48 36.1875 48 C 34.78125 48 32.683594 47.621094 31.34375 46.53125 C 30.976563 46.230469 30.429688 46.230469 30.0625 46.53125 C 28.71875 47.621094 26.59375 48 25.1875 48 C 23.78125 48 21.683594 47.621094 20.34375 46.53125 C 19.976563 46.230469 19.429688 46.230469 19.0625 46.53125 C 17.71875 47.621094 15.59375 48 14.1875 48 C 12.78125 48 10.683594 47.621094 9.34375 46.53125 C 9.160156 46.382813 8.910156 46.3125 8.6875 46.3125 Z"></path>
</svg>
